<svg xmlns="http://www.w3.org/2000/svg" xmlns:xlink="http://www.w3.org/1999/xlink"
  viewBox="-205.00001525878906 16.383551823370766 1019.6000061035156 550.3964481766292" width="1019.6000061035156" height="550.3964481766292"
  style="background:#fff; font-family:-apple-system,BlinkMacSystemFont,'Segoe UI',Roboto,sans-serif;">
<defs></defs>
<rect x="-205.00001525878906" y="16.383551823370766" width="1019.6000061035156" height="550.3964481766292" fill="#fff"/>
<g><rect x="-131.00001525878906" y="185.79998779296875" width="129" height="227" rx="2" fill="#FFFFFF" stroke="#585A5A" stroke-width="1"/></g>
<g><rect x="217.7999725341797" y="193.79998779296875" width="209.39999389648438" height="233.29998779296875" rx="2" fill="#FFFFFF" stroke="#585A5A" stroke-width="1"/></g>
<text x="-98.00001525878906" y="233.39998779296874" font-size="14" font-weight="normal" fill="#333" font-family="-apple-system,BlinkMacSystemFont,sans-serif">client</text><text x="-98.00001525878906" y="252.99998779296874" font-size="14" font-weight="normal" fill="#333" font-family="-apple-system,BlinkMacSystemFont,sans-serif">客户端</text>
<text x="-106.00001525878906" y="359.3999877929688" font-size="14" font-weight="normal" fill="#333" font-family="-apple-system,BlinkMacSystemFont,sans-serif">user</text><text x="-106.00001525878906" y="378.99998779296874" font-size="14" font-weight="normal" fill="#333" font-family="-apple-system,BlinkMacSystemFont,sans-serif">浏览器</text>
<text x="250.2999725341797" y="246.39998779296874" font-size="14" font-weight="normal" fill="#333" font-family="-apple-system,BlinkMacSystemFont,sans-serif">server</text><text x="250.2999725341797" y="265.99998779296874" font-size="14" font-weight="normal" fill="#333" font-family="-apple-system,BlinkMacSystemFont,sans-serif">服务器</text>
<text x="258.2999725341797" y="366.3999877929688" font-size="14" font-weight="normal" fill="#333" font-family="-apple-system,BlinkMacSystemFont,sans-serif">web_app</text>
<defs><marker id="m-70c6a179-05b4-48b4-977d-2759b5f9ca2d-end-arrow-585A5A" orient="auto" markerUnits="userSpaceOnUse" markerWidth="10" markerHeight="10" viewBox="0 0 10 10" refX="10" refY="5"><polygon points="0 0, 10 5, 0 10" fill="#585A5A"/></marker></defs><path d="M-2.0000152587890625,292.486607203009 Q100.64997863769531,251.6432974979889 203.2999725341797,270.79998779296875" fill="none" stroke="#585A5A" stroke-width="1" stroke-linecap="round" stroke-linejoin="round" marker-end="url(#m-70c6a179-05b4-48b4-977d-2759b5f9ca2d-end-arrow-585A5A)"/>
<defs><marker id="m-1fc47122-389e-4323-a745-3cab5b0fbc3c-end-arrow-585A5A" orient="auto" markerUnits="userSpaceOnUse" markerWidth="10" markerHeight="10" viewBox="0 0 10 10" refX="10" refY="5"><polygon points="0 0, 10 5, 0 10" fill="#585A5A"/></marker></defs><path d="M217.7999725341797,338.95613208817304 Q107.89997863769531,338.8780599405709 -2.0000152587890625,398.79998779296875" fill="none" stroke="#585A5A" stroke-width="1" stroke-linecap="round" stroke-linejoin="round" marker-end="url(#m-1fc47122-389e-4323-a745-3cab5b0fbc3c-end-arrow-585A5A)"/>
<text x="46.29997253417969" y="234.39998779296874" font-size="14" font-weight="normal" fill="#333" font-family="-apple-system,BlinkMacSystemFont,sans-serif">http 实现数据的传输</text><text x="46.29997253417969" y="253.99998779296874" font-size="14" font-weight="normal" fill="#333" font-family="-apple-system,BlinkMacSystemFont,sans-serif">https</text>
<text x="58.29997253417969" y="307.3999877929688" font-size="14" font-weight="normal" fill="#333" font-family="-apple-system,BlinkMacSystemFont,sans-serif">请求报文</text>
<text x="69.29997253417969" y="425.3999877929688" font-size="14" font-weight="normal" fill="#333" font-family="-apple-system,BlinkMacSystemFont,sans-serif">响应报文</text>
<text x="366.2999725341797" y="303.3999877929688" font-size="14" font-weight="normal" fill="#333" font-family="-apple-system,BlinkMacSystemFont,sans-serif">flask</text>
<defs><marker id="m-0581c391-5c45-423b-8f38-71904497fedd-end-arrow-585A5A" orient="auto" markerUnits="userSpaceOnUse" markerWidth="10" markerHeight="10" viewBox="0 0 10 10" refX="10" refY="5"><polygon points="0 0, 10 5, 0 10" fill="#585A5A"/></marker></defs><path d="M301.3538454416672,346.79998779296875 Q329.77690593616563,316.7384514422039 358.19996643066406,315.0999755859375" fill="none" stroke="#585A5A" stroke-width="1" stroke-linecap="round" stroke-linejoin="round" marker-end="url(#m-0581c391-5c45-423b-8f38-71904497fedd-end-arrow-585A5A)"/>
<g><rect x="624.5999908447266" y="221.0999755859375" width="116" height="226" rx="2" fill="#FFFFFF" stroke="#585A5A" stroke-width="1"/></g>
<text x="649.5999908447266" y="267.84998474121096" font-size="14" font-weight="normal" fill="#333" font-family="-apple-system,BlinkMacSystemFont,sans-serif">db 数据库</text>
<text x="674.5999908447266" y="386.84998474121096" font-size="14" font-weight="normal" fill="#333" font-family="-apple-system,BlinkMacSystemFont,sans-serif">库表</text>
<defs><marker id="m-844e3b4a-b742-4b1e-8744-0057a0b8f2ef-end-arrow-585A5A" orient="auto" markerUnits="userSpaceOnUse" markerWidth="10" markerHeight="10" viewBox="0 0 10 10" refX="10" refY="5"><polygon points="0 0, 10 5, 0 10" fill="#585A5A"/></marker></defs><path d="M435.59999084472656,239.24998474121094 Q530.0999916533872,218.67498016357422 624.5999924620479,258.0999755859375" fill="none" stroke="#585A5A" stroke-width="1" stroke-linecap="round" stroke-linejoin="round" marker-end="url(#m-844e3b4a-b742-4b1e-8744-0057a0b8f2ef-end-arrow-585A5A)"/>
<defs><marker id="m-fe71e778-8f01-4122-bf1f-ffbf78cb68e7-end-arrow-585A5A" orient="auto" markerUnits="userSpaceOnUse" markerWidth="10" markerHeight="10" viewBox="0 0 10 10" refX="10" refY="5"><polygon points="0 0, 10 5, 0 10" fill="#585A5A"/></marker></defs><path d="M624.5999908447266,349.83764464541787 Q525.8999786376953,346.6188192709511 427.19996643066406,403.3999938964844" fill="none" stroke="#585A5A" stroke-width="1" stroke-linecap="round" stroke-linejoin="round" marker-end="url(#m-fe71e778-8f01-4122-bf1f-ffbf78cb68e7-end-arrow-585A5A)"/>
<path d="M389.67,331.45 L388.33,331.45 L387,334.12 L384.33,339.45 L379,344.78 L373.67,356.78 L369.67,366.12 L364.33,378.12 L361.67,386.12 L360.33,392.78 L360.33,394.12 L355,402.12 L351,410.12 L345.67,419.45 L341.67,423.45 L335,431.45 L329.67,436.78 L324.33,442.12 L317.67,448.78 L311,454.12 L301.67,462.12 L295,467.45 L287,474.12 L276.33,480.78 L268.33,484.78 L253.67,487.45 L241.67,490.12 L229.67,491.45 L208.33,492.78 L189.67,492.78 L168.33,492.78 L143,490.12 L125.67,490.12 L108.33,488.78 L96.33,487.45 L87,487.45 L76.33,486.12 L64.33,486.12 L56.33,484.78 L51,484.78 L43,484.78 L36.33,483.45 L29.67,482.12 L23,480.78 L16.33,479.45 L11,478.12 L5.67,476.78 L0.33,475.45 L-1,475.45 L-2.33,475.45 L-3.67,474.12 L-7.67,471.45 L-10.33,468.78 L-14.33,464.78 L-14.33,463.45 L-15.67,460.78 L-17,458.12 L-17,456.78 L-18.33,452.78 L-21,451.45 L-21,448.78 L-22.33,447.45 L-22.33,446.12 L-23.67,444.78 L-25,444.78 L-25,442.12 L-29,440.78 L-30.33,439.45 L-33,438.12 L-35.67,436.78 L-37,435.45 L-38.33,435.45 L-38.33,434.12 L-39.67,434.12 L-41,431.45 L-42.33,431.45 L-42.33,430.12 L-42.33,428.78" fill="none" stroke="#585A5A" stroke-width="2" stroke-linecap="round" stroke-linejoin="round" opacity="1"/>
<path d="M-51.67,419.45 L-53,419.45 L-54.33,422.12 L-55.67,423.45 L-57,431.45 L-58.33,436.78 L-58.33,440.78 L-59.67,446.12 L-59.67,450.12 L-59.67,452.78 L-59.67,454.12 L-59.67,455.45 L-58.33,454.12 L-57,450.12" fill="none" stroke="#585A5A" stroke-width="2" stroke-linecap="round" stroke-linejoin="round" opacity="1"/>
<path d="M-47.67,419.45 L-46.33,419.45 L-45,419.45 L-42.33,419.45 L-38.33,419.45 L-35.67,419.45 L-34.33,418.12 L-31.67,418.12 L-29,418.12 L-27.67,418.12 L-25,418.12 L-22.33,418.12" fill="none" stroke="#585A5A" stroke-width="2" stroke-linecap="round" stroke-linejoin="round" opacity="1"/>
<text x="124.95185060578295" y="109.98355182337076" font-size="14" font-weight="normal" fill="#333" font-family="-apple-system,BlinkMacSystemFont,sans-serif">数据的流向</text>
<text x="236.88416010127702" y="149.78170631065754" font-size="14" font-weight="normal" fill="#333" font-family="-apple-system,BlinkMacSystemFont,sans-serif">数据流是怎么样走的 --》流程</text><text x="236.88416010127702" y="169.38170631065753" font-size="14" font-weight="normal" fill="#333" font-family="-apple-system,BlinkMacSystemFont,sans-serif">数据是怎么样封装的 --》协议</text>
<text x="298.18283212975814" y="218.55912161541482" font-size="14" font-weight="normal" fill="#333" font-family="-apple-system,BlinkMacSystemFont,sans-serif">nginx</text>
</svg>