<svg xmlns="http://www.w3.org/2000/svg" xmlns:xlink="http://www.w3.org/1999/xlink"
  viewBox="-312.5000305175781 -7.57293701171875 727 431" width="727" height="431"
  style="background:#fff; font-family:-apple-system,BlinkMacSystemFont,'Segoe UI',Roboto,sans-serif;">
<defs></defs>
<rect x="-312.5000305175781" y="-7.57293701171875" width="727" height="431" fill="#fff"/>
<g><ellipse cx="-163.50003051757812" cy="239.42706298828125" rx="75" ry="75" fill="#FFFFFF" stroke="#585A5A" stroke-width="1"/><text x="-163.50003051757812" y="244.67706298828125" text-anchor="middle" font-size="14" font-weight="normal" fill="#333" font-family="-apple-system,BlinkMacSystemFont,sans-serif">浏览器</text></g>
<g><rect x="149.49996948242188" y="159.42706298828125" width="191" height="190" rx="10" fill="#FFFFFF" stroke="#585A5A" stroke-width="1"/></g>
<defs><marker id="m-f0a5e1eb-8521-46b7-bace-c7e9b69a1157-end-arrow-585A5A" orient="auto" markerUnits="userSpaceOnUse" markerWidth="10" markerHeight="10" viewBox="0 0 10 10" refX="10" refY="5"><polygon points="0 0, 10 5, 0 10" fill="#585A5A"/></marker></defs><path d="M-102.50003051757812,179.42706298828125 L129.49996948242188,179.42706298828125" fill="none" stroke="#585A5A" stroke-width="1" stroke-linecap="butt" stroke-linejoin="miter" marker-end="url(#m-f0a5e1eb-8521-46b7-bace-c7e9b69a1157-end-arrow-585A5A)"/>
<defs><marker id="m-b68cbb13-6ebc-4587-8799-4a81c6557355-end-arrow-585A5A" orient="auto" markerUnits="userSpaceOnUse" markerWidth="10" markerHeight="10" viewBox="0 0 10 10" refX="10" refY="5"><polygon points="0 0, 10 5, 0 10" fill="#585A5A"/></marker></defs><path d="M149.49996948242188,254.42706298828125 L-80.50003051757812,254.42706298828125" fill="none" stroke="#585A5A" stroke-width="1" stroke-linecap="butt" stroke-linejoin="miter" marker-end="url(#m-b68cbb13-6ebc-4587-8799-4a81c6557355-end-arrow-585A5A)"/>
<defs><marker id="m-8ae3739e-c30b-4559-9638-9fb9241358c9-end-arrow-585A5A" orient="auto" markerUnits="userSpaceOnUse" markerWidth="10" markerHeight="10" viewBox="0 0 10 10" refX="10" refY="5"><polygon points="0 0, 10 5, 0 10" fill="#585A5A"/></marker></defs><path d="M-88.5003198280294,239.21874476058068 L30.499826338093854,239.21874476058068 L30.499826338093854,238.55767822265625 L149.4999725042171,238.55767822265625" fill="none" stroke="#585A5A" stroke-width="1" stroke-linecap="butt" stroke-linejoin="miter" marker-end="url(#m-8ae3739e-c30b-4559-9638-9fb9241358c9-end-arrow-585A5A)"/>
<path d="M-213.17,167.09 L-213.17,166.43 L-212.5,164.43 L-211.17,161.09 L-209.17,156.43 L-206.5,151.76 L-204.5,145.76 L-201.17,139.76 L-197.83,135.76 L-195.83,132.43 L-193.83,128.43 L-191.17,124.43 L-189.83,121.76 L-187.17,119.76 L-183.17,116.43 L-181.17,114.43 L-176.5,111.76 L-171.83,109.09 L-163.17,105.76 L-153.17,101.76 L-146.5,100.43 L-142.5,99.09 L-139.17,98.43 L-137.17,97.76 L-136.5,97.76 L-135.83,97.76 L-135.17,100.43 L-131.83,104.43 L-129.17,109.09 L-127.83,112.43 L-127.17,115.09 L-125.83,118.43 L-124.5,123.09 L-124.5,123.76 L-124.5,124.43 L-123.83,125.09 L-123.83,125.76 L-123.83,126.43 L-123.83,129.76 L-123.83,131.09 L-123.83,133.76 L-123.83,135.76 L-123.83,136.43 L-123.83,137.09 L-123.17,138.43 L-123.17,139.76 L-123.17,142.43 L-123.17,145.09 L-123.17,147.09 L-123.17,148.43" fill="none" stroke="#585A5A" stroke-width="2" stroke-linecap="round" stroke-linejoin="round" opacity="1"/>
<path d="M-139.17,139.09 L-139.17,139.76 L-138.5,141.09 L-137.17,142.43 L-136.5,143.76 L-135.17,145.09 L-135.17,147.09 L-133.17,151.09 L-130.5,157.09 L-127.83,162.43 L-124.5,167.09 L-123.17,169.76 L-122.5,169.76 L-121.83,169.09 L-119.83,167.09 L-116.5,163.09 L-115.17,160.43 L-113.17,157.09 L-109.83,153.09 L-107.17,149.09 L-105.83,147.09 L-105.17,145.76 L-105.17,145.09" fill="none" stroke="#585A5A" stroke-width="2" stroke-linecap="round" stroke-linejoin="round" opacity="1"/>
<text x="-179.50003051757812" y="86.02706298828124" font-size="14" font-weight="normal" fill="#333" font-family="-apple-system,BlinkMacSystemFont,sans-serif">本地执行</text>
<text x="-1.500030517578125" y="163.02706298828124" font-size="14" font-weight="normal" fill="#333" font-family="-apple-system,BlinkMacSystemFont,sans-serif">请求</text>
<text x="25.499969482421875" y="279.0270629882813" font-size="14" font-weight="normal" fill="#333" font-family="-apple-system,BlinkMacSystemFont,sans-serif">返回超文本</text>
<text x="188.49996948242188" y="208.02706298828124" font-size="14" font-weight="normal" fill="#333" font-family="-apple-system,BlinkMacSystemFont,sans-serif">百度</text>
</svg>